<svg width="68" height="129" viewBox="0 0 68 129" fill="none" xmlns="http://www.w3.org/2000/svg">
<path fill-rule="evenodd" clip-rule="evenodd" d="M63 100H27V129H63V100Z" fill="#FFCC99"/>
<path fill-rule="evenodd" clip-rule="evenodd" d="M4.77094 21.2837C2.66794 23.2223 2.39894 26.6936 4.17194 28.999L11.17 38.064C12.944 40.362 16.119 40.657 18.229 38.718C20.332 36.78 20.6009 33.3086 18.8279 31.0032L11.8299 21.9386C10.0499 19.6332 6.87494 19.345 4.77094 21.2837Z" fill="#F2B87E"/>
<path fill-rule="evenodd" clip-rule="evenodd" d="M7 20.2239V32.1013L11.454 38.063C13.17 40.363 16.244 40.657 18.285 38.718C20.321 36.779 20.582 33.3068 18.865 31.0007L12.092 21.9338C10.816 20.2304 8.792 19.6277 7 20.2239Z" fill="#D6924D"/>
<path fill-rule="evenodd" clip-rule="evenodd" d="M45 102.536V129H27V100H27.701L45 102.536Z" fill="#F2B87E"/>
<path fill-rule="evenodd" clip-rule="evenodd" d="M44.988 109L27 114.108V122L45 109.026L44.988 109Z" fill="#D6924D"/>
<path fill-rule="evenodd" clip-rule="evenodd" d="M33.297 113.153C28.059 115.042 23.541 113.676 21.233 110.01L1 79.377L44.125 84.451L53.812 89.791V51.899C53.812 48.657 56.516 46 59.829 46C63.135 46 66.353 48.694 65.845 51.899L63.863 64.337L67.746 89.557C68.819 96.508 66.422 101.072 61.893 103.034L33.297 113.153Z" fill="#FFCC99"/>
<path fill-rule="evenodd" clip-rule="evenodd" d="M40 84.049V89.465C40 91.96 42.041 94 44.539 94H54.461C56.959 94 59 91.96 59 89.465V46C56.114 46.388 53.875 48.871 53.875 51.854V89.81L52.981 89.311V89.81L43.46 84.462L40 84.049Z" fill="#D6924D"/>
<path fill-rule="evenodd" clip-rule="evenodd" d="M35.845 87.319L45 108.816L33.085 113.146C27.871 115.05 23.375 113.673 21.077 109.976L1 79L19.122 81.159L35.845 87.319Z" fill="#F2B87E"/>
<path fill-rule="evenodd" clip-rule="evenodd" d="M7 80V87.569L18.418 105L43 103.654L36.048 87.496L19.528 81.474L7 80Z" fill="#F2B87E"/>
<path fill-rule="evenodd" clip-rule="evenodd" d="M52 100.866L18.514 105L7 87.9V80L16.762 81.125L52 100.866Z" fill="#F2B87E"/>
<path fill-rule="evenodd" clip-rule="evenodd" d="M43 102.022L18.559 105L7 87.952V80L16.875 81.125L39.196 93.487L43 102.022Z" fill="#D6924D"/>
<path fill-rule="evenodd" clip-rule="evenodd" d="M51.338 0H15.662C11.996 0 9 2.9835 9 6.6335V95.367C9 99.016 11.996 102 15.662 102H51.338C55.004 102 58 99.016 58 95.367V6.6335C58 2.9835 55.004 0 51.338 0Z" fill="#1A1A1A"/>
<path fill-rule="evenodd" clip-rule="evenodd" d="M51.055 2C39.018 2 26.982 2 14.945 2C12.222 2 10 4.1671 10 6.8219V92.178C10 94.833 12.222 97 14.945 97H51.055C53.778 97 56 94.833 56 92.178V6.8281C56 4.1733 53.778 2 51.055 2Z" fill="white"/>
<path fill-rule="evenodd" clip-rule="evenodd" d="M35 42V44.707C35 45.971 34.102 47 33 47C31.898 47 31 45.971 31 44.707V42H35Z" fill="#1A1A1A"/>
<path fill-rule="evenodd" clip-rule="evenodd" d="M33 43C33.556 43 34 43.451 34 44C34 44.556 33.549 45 33 45C32.444 45 32 44.549 32 44C32 43.444 32.451 43 33 43Z" fill="#666666"/>
<path d="M29.744 25H20V34.3758H29.744V25ZM39.487 35.9394V37.491H42.731V39.055H45.981V35.9394H42.731H39.487ZM36.237 40.624V42.188H34.612V39.061H37.862V40.624H36.237ZM36.237 42.188H41.106V39.061H37.869V35.9455H32.994V34.3818H34.619V31.2546H32.994V29.6909H34.619V26.5697H32.994V25.0061H31.381V31.2546H32.994V34.3818H31.381V35.9455H29.756V37.497H28.131V35.9455H24.881V37.497H23.269V35.9455H20.019V39.061H24.888V37.497H28.138V39.061H31.388V42.188H34.631V43.752H31.388V45.303H33V46.867H31.388V49.994H33.006V46.867H34.631V49.994H37.881V46.867H39.506V49.994H41.125V46.867H39.506V45.303H42.75V49.994H46V46.867H44.375V45.303H42.75V43.752H39.506V45.303H37.881V43.752H36.256V42.188H36.237ZM42.725 40.624V42.188H44.35V43.752H45.975V40.624H44.35H42.725ZM36.237 45.309H37.862V46.873H34.612V45.309V43.758H36.237V45.309ZM31.369 35.9394H32.981V37.491H34.606V39.055H31.362V35.9394H31.369ZM39.487 31.2485H42.731V28.1273H39.487V31.2485ZM36.237 25V34.3758H45.981V25H36.237ZM44.356 32.8121H37.862V26.5697H44.356V32.8121ZM23.25 46.873H26.494V43.752H23.25V46.873ZM20 50H29.744V40.624H20V50ZM21.625 42.188H28.119V48.436H21.625V42.188ZM23.25 31.2485H26.494V28.1273H23.25V31.2485ZM28.119 32.8121H21.625V26.5697H28.119V32.8121Z" fill="black"/>
<path d="M17 49.604V55.585V56H17.388H22.984V55.177H17.776V49.61H17V49.604ZM50 49.604V55.585V56H49.612H44.016V55.177H49.224V49.61H50V49.604ZM50 26.3964V20.4148V20H49.612H44.016V20.823H49.224V26.3964H50ZM17 26.3964V20.4148V20H17.388H22.984V20.823H17.776V26.3964H17Z" fill="#E94C4A"/>
<path fill-rule="evenodd" clip-rule="evenodd" d="M0.770992 61.567C-0.731008 64.102 0.0290084 67.458 2.46301 69.028L12.063 75.197C14.497 76.761 17.721 75.97 19.229 73.435C20.731 70.901 19.971 67.545 17.537 65.975L7.93701 59.806C5.50301 58.236 2.27899 59.033 0.770992 61.567Z" fill="#D6924D"/>
<path fill-rule="evenodd" clip-rule="evenodd" d="M0 63.255C0.326 64.635 1.128 65.891 2.341 66.694L12.097 73.159C14.57 74.797 17.846 73.968 19.379 71.313C19.662 70.814 19.873 70.289 20 69.745C19.674 68.365 18.872 67.109 17.659 66.306L7.90302 59.841C5.43002 58.203 2.154 59.032 0.621002 61.687C0.338002 62.186 0.133 62.711 0 63.255Z" fill="#FFCC99"/>
<path fill-rule="evenodd" clip-rule="evenodd" d="M1.16196 51.806C0.443959 54.481 2.18196 57.162 4.98096 57.912L11.491 59.659C14.399 60.438 17.029 59.911 18.266 57.775C20.42 54.046 17.47 50.827 14.103 49.927L7.59998 48.18C4.79998 47.424 1.88596 49.125 1.16196 51.806Z" fill="#D6924D"/>
<path fill-rule="evenodd" clip-rule="evenodd" d="M1 51.976C1.48 53.77 2.932 55.263 4.888 55.805L11.526 57.642C14.491 58.461 17.173 57.907 18.434 55.661C18.692 55.203 18.877 54.752 19 54.312C18.391 52.223 16.379 50.627 14.195 50.025L7.55801 48.188C4.70901 47.4 1.744 49.17 1 51.976Z" fill="#FFCC99"/>
<path fill-rule="evenodd" clip-rule="evenodd" d="M2.32101 74.241C0.559011 75.894 0.558985 78.601 2.32598 80.254L9.27301 86.761C11.035 88.414 13.92 88.414 15.682 86.755C17.443 85.102 17.437 82.395 15.676 80.742L8.729 74.23C6.967 72.588 4.08201 72.588 2.32101 74.241Z" fill="#D6924D"/>
<path fill-rule="evenodd" clip-rule="evenodd" d="M1 76.173C1.205 76.871 1.59801 77.529 2.18301 78.073L9.27802 84.733C11.077 86.423 14.023 86.423 15.823 84.727C16.402 84.183 16.795 83.525 17 82.827C16.795 82.129 16.402 81.471 15.817 80.927L8.72198 74.267C6.92298 72.577 3.977 72.577 2.177 74.273C1.598 74.817 1.211 75.475 1 76.173Z" fill="#FFCC99"/>
</svg>
