<svg width="86" height="131" viewBox="0 0 86 131" fill="none" xmlns="http://www.w3.org/2000/svg">
<path d="M23.22 67.707C23.22 67.707 37.024 44.781 38.428 45.853C39.831 46.925 38.052 71.526 38.052 71.526L24.905 75.511L23.22 67.707Z" fill="#E6A665"/>
<path d="M50.104 114.147L58.566 104.072L76.589 80.884L82.771 69.95L40.839 68.072L18.969 102.024L3.79999 130.183H43.066L50.104 114.147Z" fill="#F7D6B4"/>
<path d="M81.144 23.463L75.86 28.415C75.29 28.949 74.621 29.366 73.89 29.641C73.16 29.917 72.382 30.045 71.601 30.02C70.821 29.995 70.053 29.816 69.342 29.494C68.63 29.172 67.989 28.713 67.455 28.143C66.921 27.574 66.505 26.904 66.23 26.174C65.954 25.443 65.826 24.665 65.851 23.885C65.876 23.104 66.055 22.336 66.377 21.625C66.699 20.914 67.158 20.273 67.728 19.739L73.011 14.786C73.581 14.251 74.25 13.834 74.982 13.559C75.713 13.283 76.491 13.155 77.272 13.18C78.053 13.205 78.821 13.384 79.532 13.707C80.244 14.029 80.885 14.488 81.419 15.059C81.953 15.628 82.37 16.298 82.645 17.029C82.92 17.76 83.048 18.537 83.023 19.318C82.997 20.098 82.818 20.866 82.496 21.577C82.173 22.289 81.714 22.929 81.144 23.463Z" fill="#F7D6B4"/>
<path opacity="0.34" d="M76.589 69.884L82.771 58.95L72.156 58.512L76.589 69.884Z" fill="#A86420"/>
<path opacity="0.55" d="M34.089 86.861L60.586 90.931C61.828 91.122 62.945 91.794 63.695 92.802C64.445 93.809 64.769 95.072 64.595 96.317L72.788 85.775L34.089 86.861Z" fill="#E6A665"/>
<path d="M72.598 0.166H33.463C30.828 0.166 28.693 2.302 28.693 4.936V83.499C28.693 86.134 30.828 88.269 33.463 88.269H72.598C75.232 88.269 77.368 86.134 77.368 83.499V4.936C77.368 2.302 75.232 0.166 72.598 0.166Z" fill="#393F40"/>
<path d="M72.755 2.37H33.305C31.987 2.37 30.918 3.439 30.918 4.757V83.942C30.918 85.261 31.987 86.329 33.305 86.329H72.755C74.074 86.329 75.143 85.261 75.143 83.942V4.757C75.143 3.439 74.074 2.37 72.755 2.37Z" fill="#456469"/>
<g opacity="0.08">
<path opacity="0.08" d="M75.143 24.151V4.757C75.143 4.444 75.081 4.13399 74.961 3.84399C74.841 3.55399 74.665 3.29099 74.444 3.06899C74.222 2.84799 73.959 2.67199 73.669 2.55199C73.38 2.43199 73.069 2.37 72.756 2.37H69.156L30.915 78.449V83.944C30.915 84.257 30.977 84.568 31.097 84.857C31.217 85.147 31.393 85.41 31.615 85.632C31.836 85.853 32.1 86.029 32.389 86.149C32.679 86.269 32.989 86.331 33.303 86.331H43.887L75.143 24.151Z" fill="white"/>
<path opacity="0.08" d="M30.918 65.383V73.452L66.648 2.37H62.592L30.918 65.383Z" fill="white"/>
<path opacity="0.08" d="M75.143 50.179V29.266L46.459 86.329H56.971L75.143 50.179Z" fill="white"/>
</g>
<g opacity="0.12">
<path opacity="0.12" d="M37.522 5.51401H33.87C33.762 5.51401 33.655 5.493 33.554 5.451C33.454 5.41 33.363 5.34901 33.287 5.27201C33.21 5.19601 33.149 5.10501 33.108 5.00401C33.066 4.90401 33.045 4.79701 33.045 4.68801C33.045 4.47001 33.132 4.26001 33.287 4.10501C33.441 3.95001 33.651 3.86301 33.87 3.86301H37.522C37.741 3.86301 37.951 3.95001 38.105 4.10501C38.26 4.26001 38.347 4.47001 38.347 4.68801C38.347 4.90701 38.26 5.11701 38.105 5.27201C37.951 5.42701 37.741 5.51401 37.522 5.51401Z" fill="#F1F1F2"/>
<path opacity="0.12" d="M40.978 5.513H39.733C39.514 5.513 39.304 5.426 39.149 5.271C38.994 5.117 38.907 4.907 38.907 4.688C38.907 4.469 38.994 4.259 39.149 4.104C39.304 3.949 39.514 3.862 39.733 3.862H40.978C41.197 3.862 41.407 3.949 41.562 4.104C41.717 4.259 41.804 4.469 41.804 4.688C41.804 4.907 41.717 5.117 41.562 5.271C41.407 5.426 41.197 5.513 40.978 5.513Z" fill="#F1F1F2"/>
<path opacity="0.12" d="M72.561 5.513H65.258C65.039 5.513 64.829 5.426 64.674 5.271C64.519 5.117 64.432 4.907 64.432 4.688C64.432 4.469 64.519 4.259 64.674 4.104C64.829 3.949 65.039 3.862 65.258 3.862H72.561C72.78 3.862 72.99 3.949 73.145 4.104C73.3 4.259 73.387 4.469 73.387 4.688C73.387 4.907 73.3 5.117 73.145 5.271C72.99 5.426 72.78 5.513 72.561 5.513Z" fill="#F1F1F2"/>
</g>
<path d="M82.771 58.95L80.626 60.312C79.517 61.017 78.173 61.252 76.89 60.966C75.607 60.68 74.49 59.896 73.785 58.787L72.723 57.116C72.018 56.006 71.783 54.662 72.069 53.379C72.355 52.096 73.139 50.979 74.248 50.274L76.392 48.912C76.942 48.563 77.554 48.326 78.196 48.213C78.837 48.101 79.494 48.116 80.129 48.258C80.764 48.4 81.365 48.665 81.898 49.039C82.431 49.413 82.885 49.888 83.234 50.438L84.295 52.109C85 53.218 85.236 54.562 84.95 55.845C84.664 57.128 83.88 58.245 82.771 58.95Z" fill="#F7D6B4"/>
<path d="M82.771 46.002L80.626 47.364C79.517 48.069 78.173 48.305 76.89 48.019C75.607 47.733 74.49 46.949 73.785 45.839L72.723 44.169C72.018 43.059 71.783 41.715 72.069 40.432C72.355 39.149 73.139 38.032 74.248 37.327L76.392 35.965C76.942 35.616 77.554 35.378 78.196 35.266C78.837 35.154 79.494 35.169 80.129 35.31C80.764 35.452 81.365 35.717 81.898 36.091C82.431 36.465 82.885 36.941 83.234 37.49L84.295 39.16C85 40.27 85.236 41.614 84.95 42.897C84.664 44.18 83.88 45.297 82.771 46.002Z" fill="#F7D6B4"/>
<path d="M82.771 33.166L80.626 34.528C79.517 35.233 78.173 35.468 76.89 35.182C75.607 34.896 74.49 34.112 73.785 33.003L72.723 31.331C72.018 30.222 71.783 28.878 72.069 27.595C72.355 26.312 73.139 25.195 74.248 24.49L76.392 23.128C76.942 22.779 77.554 22.542 78.196 22.429C78.837 22.317 79.494 22.332 80.129 22.474C80.764 22.615 81.365 22.881 81.898 23.255C82.431 23.629 82.885 24.104 83.234 24.653L84.295 26.324C85 27.434 85.236 28.778 84.95 30.061C84.664 31.344 83.88 32.461 82.771 33.166Z" fill="#F7D6B4"/>
<path d="M81.939 32.237C82.876 31.749 82.765 29.683 81.691 27.623C80.618 25.562 78.989 24.288 78.052 24.776C77.116 25.264 77.227 27.329 78.3 29.39C79.374 31.45 81.003 32.725 81.939 32.237Z" fill="#FCEEE3"/>
<path d="M81.385 40.425C82.458 42.485 82.569 44.551 81.633 45.039C80.696 45.527 79.071 44.252 77.994 42.192C76.917 40.131 76.81 38.065 77.746 37.577C78.683 37.089 80.312 38.367 81.385 40.425Z" fill="#FCEEE3"/>
<path d="M80.762 53.439C81.836 55.499 81.821 57.63 80.732 58.198C79.642 58.766 77.888 57.555 76.814 55.495C75.741 53.435 75.755 51.304 76.845 50.736C77.935 50.168 79.689 51.378 80.762 53.439Z" fill="#FCEEE3"/>
<path d="M18.232 105.65L8.90201 73.778C8.50001 72.719 8.32502 71.588 8.38802 70.457C8.45102 69.327 8.75103 68.222 9.26803 67.214L21.576 43.248C22.945 40.581 26.485 39.971 28.668 42.024V60.664L26.58 68.073L33.814 88.25L18.232 105.65Z" fill="#F7D6B4"/>
<path d="M17.575 51.131L22.09 42.337L23.554 45.048L21.26 49.685C20.258 50.613 18.943 51.128 17.577 51.128L17.575 51.131Z" fill="#FCEEE3"/>
<g style="mix-blend-mode:multiply" opacity="0.25">
<g style="mix-blend-mode:multiply" opacity="0.25">
<path d="M71.344 54.03H50.762L36.736 64.633L38.618 54.03H16.212L36.048 18.991H71.344C72.144 18.991 72.911 19.309 73.476 19.875C74.042 20.44 74.36 21.208 74.36 22.008V51.013C74.36 51.813 74.042 52.58 73.476 53.146C72.911 53.712 72.144 54.03 71.344 54.03Z" fill="#8D0000"/>
</g>
</g>
<path d="M68.467 50.454H47.886L33.86 61.057L35.742 50.454H3.017C2.217 50.454 1.45 50.137 0.884003 49.571C0.318003 49.005 0 48.238 0 47.438V18.433C0 17.633 0.318003 16.866 0.884003 16.3C1.45 15.735 2.217 15.417 3.017 15.417H68.467C69.267 15.417 70.034 15.735 70.6 16.3C71.166 16.866 71.484 17.633 71.484 18.433V47.439C71.483 48.239 71.165 49.006 70.6 49.571C70.034 50.137 69.267 50.454 68.467 50.454Z" fill="#FF2950"/>
<path d="M63.437 31.104H35.162C34.76 31.104 34.433 30.794 34.433 30.412C34.433 30.03 34.76 29.72 35.162 29.72H63.437C63.839 29.72 64.166 30.03 64.166 30.412C64.166 30.794 63.839 31.104 63.437 31.104Z" fill="#FF9E92"/>
<path d="M63.437 34.977H35.162C34.76 34.977 34.433 34.667 34.433 34.285C34.433 33.903 34.76 33.593 35.162 33.593H63.437C63.839 33.593 64.166 33.903 64.166 34.285C64.166 34.667 63.839 34.977 63.437 34.977Z" fill="#FF9E92"/>
<path d="M63.437 27.257H35.162C34.76 27.257 34.433 26.947 34.433 26.565C34.433 26.182 34.76 25.873 35.162 25.873H63.437C63.839 25.873 64.166 26.182 64.166 26.565C64.166 26.947 63.839 27.257 63.437 27.257Z" fill="#FF9E92"/>
<path d="M56.049 38.851H35.162C34.76 38.851 34.433 38.541 34.433 38.159C34.433 37.777 34.76 37.467 35.162 37.467H56.049C56.451 37.467 56.778 37.777 56.778 38.159C56.778 38.541 56.451 38.851 56.049 38.851Z" fill="#FF9E92"/>
<path d="M10.802 32.68L13.394 30.25L15.949 32.645L24.706 24.209L27.299 26.639L15.956 37.512L10.802 32.68Z" fill="white"/>
<path d="M24.711 24.857L26.614 26.642L15.956 36.863L11.494 32.679L13.394 30.894L15.956 33.294L24.711 24.857ZM24.702 23.559L24.058 24.18L15.944 31.995L14.038 30.209L13.394 29.604L12.75 30.209L10.846 31.993L10.114 32.68L10.846 33.367L15.309 37.551L15.96 38.161L16.604 37.544L27.267 27.322L27.983 26.635L27.259 25.955L25.355 24.169L24.702 23.559Z" fill="#FF2950"/>
</svg>
