<svg width="20" height="20" viewBox="0 0 20 20" fill="none" xmlns="http://www.w3.org/2000/svg">
<path d="M10 0C4.486 0 0 4.486 0 10V14.143C0 15.167 0.897 16 2 16H3C3.2652 16 3.5196 15.895 3.7071 15.707C3.8946 15.52 4 15.265 4 15V9.85699C4 9.59199 3.8946 9.33702 3.7071 9.15002C3.5196 8.96202 3.2652 8.85699 3 8.85699H2.092C2.648 4.98699 5.978 2 10 2C14.022 2 17.352 4.98699 17.908 8.85699H17C16.7348 8.85699 16.4804 8.96202 16.2929 9.15002C16.1054 9.33702 16 9.59199 16 9.85699V16C16 17.103 15.103 18 14 18H12V17H8V20H14C16.206 20 18 18.206 18 16C19.103 16 20 15.167 20 14.143V10C20 4.486 15.514 0 10 0Z" fill="white"/>
</svg>
