<svg width="12" height="20" viewBox="0 0 12 20" fill="none" xmlns="http://www.w3.org/2000/svg">
<path d="M9.24119e-07 5.09399C-0.00199908 5.16599 0.00900459 5.23699 0.0350046 5.30499C0.0610046 5.37199 0.0999948 5.43299 0.149995 5.48499C0.199995 5.53599 0.259005 5.577 0.326005 5.604C0.392005 5.632 0.462998 5.64498 0.533998 5.64398H2.35899C2.66499 5.64398 2.908 5.39401 2.948 5.08801C3.146 3.62501 4.14301 2.56 5.91901 2.56C7.43601 2.56 8.826 3.32402 8.826 5.16302C8.826 6.57802 7.99699 7.22698 6.691 8.21698C5.201 9.30698 4.022 10.58 4.107 12.645L4.11301 13.127C4.11701 13.432 4.364 13.678 4.666 13.678H6.46001C6.76701 13.678 7.01401 13.428 7.01401 13.12V12.885C7.01401 11.287 7.618 10.82 9.248 9.57599C10.596 8.54399 12 7.398 12 4.992C12 1.626 9.177 0 6.086 0C3.284 0 0.211 1.31599 0.00199983 5.09399H9.24119e-07ZM3.446 17.935C3.446 19.122 4.387 20 5.681 20C7.027 20 7.955 19.122 7.955 17.935C7.955 16.704 7.027 15.841 5.679 15.841C4.388 15.841 3.446 16.704 3.446 17.935Z" fill="white"/>
</svg>
